HIERARCHY
ROOT Hips
{
  OFFSET 57.8838 95.319 338.509
  CHANNELS 6 Xposition Yposition Zposition Zrotation Xrotation Yrotation
  JOINT LeftUpLeg
  {
    OFFSET 8.64259 1.95398 -2.38835
    CHANNELS 3 Zrotation Xrotation Yrotation
    JOINT LeftLeg
    {
      OFFSET 43.7702 0 0
      CHANNELS 3 Zrotation Xrotation Yrotation
      JOINT LeftFoot
      {
        OFFSET 40.6238 0 0
        CHANNELS 3 Zrotation Xrotation Yrotation
        JOINT LeftToeBase
        {
          OFFSET 12.7242 0 0
          CHANNELS 3 Zrotation Xrotation Yrotation
          End Site
          {
            OFFSET 0 0 0
          }
        }
      }
    }
  }
  JOINT RightUpLeg
  {
    OFFSET -8.2249 1.95398 -2.59336
    CHANNELS 3 Zrotation Xrotation Yrotation
    JOINT RightLeg
    {
      OFFSET 43.5653 0 0
      CHANNELS 3 Zrotation Xrotation Yrotation
      JOINT RightFoot
      {
        OFFSET 40.6238 0 0
        CHANNELS 3 Zrotation Xrotation Yrotation
        JOINT RightToeBase
        {
          OFFSET 12.7242 0 0
          CHANNELS 3 Zrotation Xrotation Yrotation
          End Site
          {
            OFFSET 0 0 0
          }
        }
      }
    }
  }
  JOINT Spine
  {
    OFFSET 0.165834 0.87714 6.61349
    CHANNELS 3 Zrotation Xrotation Yrotation
    JOINT Spine1
    {
      OFFSET 7.38963 1.71661e-005 0
      CHANNELS 3 Zrotation Xrotation Yrotation
      JOINT Spine2
      {
        OFFSET 11.9445 1.14441e-005 0
        CHANNELS 3 Zrotation Xrotation Yrotation
        JOINT Spine3
        {
          OFFSET 14.7254 4.19617e-005 0
          CHANNELS 3 Zrotation Xrotation Yrotation
          JOINT Spine4
          {
            OFFSET 10.9679 0 0
            CHANNELS 3 Zrotation Xrotation Yrotation
            JOINT RightShoulder
            {
              OFFSET 2.46616 -1.6653 3.69651
              CHANNELS 3 Zrotation Xrotation Yrotation
              JOINT RightArm
              {
                OFFSET 13.0012 0 0
                CHANNELS 3 Zrotation Xrotation Yrotation
                JOINT RightForeArm
                {
                  OFFSET 28.7848 1.62311e-005 0
                  CHANNELS 3 Zrotation Xrotation Yrotation
                  JOINT RightHand
                  {
                    OFFSET 26.5688 1.62095e-005 0
                    CHANNELS 3 Zrotation Xrotation Yrotation
                    End Site
                    {
                      OFFSET 0 0 0
                    }
                  }
                }
              }
            }
            JOINT LeftShoulder
            {
              OFFSET 2.38034 -1.29275 -3.7523
              CHANNELS 3 Zrotation Xrotation Yrotation
              JOINT LeftArm
              {
                OFFSET 16.3182 6.07031e-005 0
                CHANNELS 3 Zrotation Xrotation Yrotation
                JOINT LeftForeArm
                {
                  OFFSET 27.0901 0 0
                  CHANNELS 3 Zrotation Xrotation Yrotation
                  JOINT LeftHand
                  {
                    OFFSET 24.5451 1.51738e-005 0
                    CHANNELS 3 Zrotation Xrotation Yrotation
                    End Site
                    {
                      OFFSET 0 0 0
                    }
                  }
                }
              }
            }
            JOINT Neck
            {
              OFFSET 5.0226 -0.0266342 0
              CHANNELS 3 Zrotation Xrotation Yrotation
              JOINT Head
              {
                OFFSET 6.69364 2.86102e-005 0
                CHANNELS 3 Zrotation Xrotation Yrotation
                End Site
                {
                  OFFSET 0 0 0
                }
              }
            }
          }
        }
      }
    }
  }
}
MOTION
Frames:	12
Frame Time:	0.0416667
295.388 60.8742 294.2 97.8468 -52.2794 99.2685 -154.682 14.2849 102.032 -95.3616 -3.07062 -1.44771 117.037 33.1935 -6.65151 69.2378 24.7934 21.4271 -150.506 -53.9393 110.428 -0.921125 -67.2793 0.272953 -24.0332 43.9244 91.8072 151.369 16.9457 117.012 0.830664 14.6935 -90.2351 -2.51287 1.57219 -0.326039 -14.1829 1.55627 -0.395254 -36.7257 1.59782 0.160555 -16.713 1.59783 0.160578 102.007 7.58461 -83.3897 94.0344 -9.13623 -22.0955 -17.9724 10.6359 -117.593 3.64444 4.56686 89.1871 -80.6901 -3.57136 87.3544 62.5626 12.8061 -66.9079 -126.493 -18.3003 -92.076 43.9146 -27.9508 -64.6448 160.835 -9.50384 9.79386 -110.716 -16.6848 -5.57232 
295.579 60.5816 294.407 97.6774 -52.3375 99.1856 -154.552 14.1971 101.951 -95.6223 -3.80985 -1.11042 117.088 32.4997 -7.24317 70.1313 25.3759 21.3934 -150.308 -54.0192 110.623 -0.914793 -67.2769 0.272926 -23.5228 43.7616 91.4051 151.343 16.6148 116.829 0.841995 14.6832 -90.2343 -2.49219 1.59331 -0.323464 -14.1622 1.5775 -0.393389 -36.7052 1.61692 0.170238 -16.6925 1.61692 0.170216 102.028 7.49771 -83.2694 94.0828 -9.49775 -21.7106 -18.0641 10.948 -118.031 3.77578 4.70807 89.1833 -80.6956 -3.56654 87.3355 63.8976 13.6237 -66.6457 -126.846 -17.1851 -92.6674 43.7423 -27.1378 -63.3394 160.812 -9.06264 9.77964 -110.612 -16.7011 -5.62056 
296.159 59.7185 295.014 97.1638 -52.5034 98.932 -154.22 13.9294 101.81 -96.399 -5.55588 -0.21921 117.081 30.4672 -8.8478 72.8267 27.0199 21.0335 -149.727 -54.2523 111.193 -0.909822 -67.3116 0.267995 -22.0347 43.31 90.2399 151.181 15.765 116.379 0.873086 14.6513 -90.2313 -2.42842 1.65554 -0.314325 -14.0984 1.64011 -0.386906 -36.6419 1.67345 0.197916 -16.6293 1.67346 0.197918 102.093 7.23248 -82.9158 94.2642 -10.587 -20.5306 -18.3736 11.8945 -119.325 4.15843 5.11689 89.1458 -80.7133 -3.55483 87.2753 67.4865 15.9622 -65.9929 -127.56 -14.1409 -94.2172 43.1012 -24.6253 -59.2583 160.732 -7.73345 9.73703 -110.281 -16.7639 -5.75843 
297.076 58.4167 295.918 96.3522 -52.7405 98.5213 -153.873 13.5128 101.839 -97.624 -6.88101 0.850313 116.568 27.5727 -10.7061 77.2521 29.3283 19.697 -148.854 -54.621 112.041 -0.880062 -67.5045 0.251339 -19.8677 42.6992 88.5709 150.772 14.7673 115.888 0.919233 14.5995 -90.2274 -2.32496 1.74867 -0.301716 -13.9948 1.73369 -0.378412 -36.5393 1.75849 0.237945 -16.5267 1.75847 0.237935 102.192 6.81272 -82.3859 94.6074 -12.2716 -18.6567 -18.909 13.3936 -121.255 4.71854 5.70719 89.0192 -80.7441 -3.5439 87.1727 72.065 19.293 -65.2705 -128.063 -10.1686 -96.2301 41.6086 -20.6753 -52.8066 160.573 -5.67178 9.67504 -109.727 -16.9042 -5.94695 
298.282 56.7717 297.017 95.2735 -53.0147 97.9565 -153.682 12.974 102.215 -99.2646 -6.20671 1.77316 114.999 24.6209 -11.7327 83.63 31.9486 16.7587 -147.789 -55.0786 113.064 -0.862927 -67.9839 0.238685 -17.2054 42.0604 86.5474 150.104 13.8487 115.484 0.975998 14.5286 -90.2234 -2.18347 1.86332 -0.288317 -13.8531 1.84881 -0.370037 -36.3989 1.86377 0.285191 -16.3862 1.86378 0.285211 102.32 6.25666 -81.7288 95.1721 -14.4458 -16.1497 -19.706 15.4084 -123.624 5.38782 6.39518 88.7441 -80.7895 -3.54235 87.0253 76.6872 23.1772 -64.6828 -128.228 -6.09246 -98.4669 38.8131 -15.8438 -44.7884 160.313 -3.01389 9.60479 -108.947 -17.1618 -6.14189 
299.683 54.8467 298.189 93.9579 -53.292 97.2419 -153.763 12.2883 102.993 -101.179 -2.13599 2.34263 111.984 22.856 -10.6558 91.7633 34.494 12.3379 -146.593 -55.6086 114.201 -0.839696 -68.8568 0.226909 -14.223 41.4784 84.3085 149.227 13.0918 115.199 1.03923 14.4397 -90.22 -2.00584 1.99019 -0.276791 -13.6753 1.97607 -0.364563 -36.2225 1.98132 0.334372 -16.2099 1.98133 0.334381 102.472 5.58447 -80.9893 96.0428 -17.003 -13.0568 -20.8196 17.922 -126.232 6.10151 7.09815 88.2667 -80.8507 -3.56005 86.832 80.7945 27.2818 -64.3091 -128.083 -2.44519 -100.83 34.8111 -11.0667 -36.2426 159.93 0.0952877 9.54016 -107.943 -17.5721 -6.29817 
301.143 52.7127 299.299 92.4406 -53.5383 96.389 -154.121 11.3774 104.085 -103.082 6.11264 2.57012 107.332 23.3117 -6.45363 100.611 36.7 7.47875 -145.324 -56.1706 115.406 -0.792967 -70.2068 0.215802 -11.0681 40.9974 81.9673 148.197 12.4921 115.022 1.10429 14.3343 -90.2186 -1.79518 2.12031 -0.270286 -13.4644 2.10634 -0.363582 -36.0133 2.10346 0.379739 -16.0006 2.10346 0.379736 102.642 4.8206 -80.2069 97.3015 -19.8218 -9.42947 -22.3031 20.9226 -128.866 6.80198 7.74166 87.5439 -80.928 -3.60857 86.5956 84.1309 31.3791 -64.1543 -127.546 0.44576 -103.183 30.2641 -7.14511 -28.1312 159.404 3.50083 9.49747 -106.733 -18.1552 -6.37689 
302.543 50.5085 300.243 90.7638 -53.7218 95.4214 -154.626 10.2395 105.29 -104.715 17.9012 2.73054 100.905 25.5272 0.828022 109.202 38.4186 2.84707 -144.081 -56.6725 116.604 -0.761575 -72.1034 0.214432 -7.84125 40.6326 79.5981 147.058 12.0094 114.923 1.16751 14.2147 -90.2207 -1.55614 2.24558 -0.272583 -13.2252 2.23143 -0.371201 -35.7756 2.22364 0.415254 -15.763 2.22364 0.415263 102.826 3.99136 -79.413 99.0229 -22.7716 -5.32407 -24.2005 24.3888 -131.315 7.44445 8.26901 86.5432 -81.0205 -3.70044 86.3232 86.614 35.3133 -64.1906 -126.553 2.41275 -105.39 25.8388 -4.31176 -21.0579 158.724 7.05134 9.49375 -105.347 -18.9076 -6.35373 
303.852 48.4177 301.012 88.9775 -53.8147 94.3765 -155.073 9.01988 106.399 -105.99 30.8788 3.19044 93.1543 27.6381 9.59308 117.291 39.3046 -1.88514 -143.602 -56.3488 117.161 -2.14207 -74.5201 0.466753 -3.75911 40.3833 76.2066 145.847 11.6007 114.872 1.22591 14.0841 -90.2285 -1.29478 2.3593 -0.287972 -12.9636 2.34434 -0.391587 -35.5157 2.33672 0.434815 -15.503 2.33671 0.434819 103.02 3.12285 -78.6313 101.256 -25.717 -0.805513 -26.543 28.2736 -133.375 7.99836 8.64104 85.241 -81.1263 -3.84869 86.026 88.1989 38.9554 -64.3658 -125.166 3.38112 -107.385 21.9201 -2.4244 -15.2014 157.884 10.6109 9.54371 -103.826 -19.8041 -6.22048 
305.099 46.5867 301.674 87.1414 -53.7928 93.3069 -155.33 7.88415 107.302 -106.942 42.345 4.1521 85.6012 28.2583 17.4289 124.713 39.0351 -6.92283 -147.518 -50.6495 114.009 -13.5385 -76.9033 2.71252 6.25861 39.1259 65.1204 144.613 11.2329 114.841 1.2771 13.9461 -90.2442 -1.01857 2.45581 -0.321376 -12.6873 2.43928 -0.429208 -35.2408 2.43879 0.432006 -15.2281 2.43878 0.432003 103.218 2.24121 -77.8798 104.005 -28.5206 4.03969 -29.3601 32.4892 -134.85 8.44285 8.8345 83.6225 -81.2424 -4.06726 85.7192 88.7934 42.1728 -64.5938 -123.531 3.26465 -109.095 18.6336 -1.22248 -10.4766 156.888 14.0589 9.6571 -102.207 -20.8044 -5.97968 
306.297 45.0827 302.297 85.326 -53.636 92.2813 -155.446 6.91036 108.014 -107.599 51.0458 5.5477 79.5768 27.485 22.9035 131.069 37.6933 -11.8594 -149.33 -47.1055 113.259 -22.9365 -79.465 2.711 13.3957 36.8767 56.5944 143.418 10.898 114.819 1.31928 13.8053 -90.2711 -0.736434 2.53029 -0.378444 -12.405 2.51118 -0.48951 -34.9597 2.52696 0.399996 -14.9471 2.52697 0.400008 103.415 1.3712 -77.1742 107.205 -31.0496 9.08565 -32.6838 36.8982 -135.555 8.76347 8.84291 81.6826 -81.3647 -4.37074 85.4219 88.1984 44.8133 -64.7409 -121.81 1.93193 -110.41 15.9494 -0.464187 -6.6835 155.748 17.2873 9.83704 -100.524 -21.8609 -5.63698 
307.424 43.9172 302.9 83.6076 -53.3279 91.3803 -155.554 6.1192 108.606 -107.957 57.1889 7.16107 75.2859 26.0041 26.1126 136.092 35.6777 -16.2158 -150.995 -43.4995 112.206 -26.1149 -82.4176 6.48299 17.3242 34.9545 51.4279 142.305 10.6325 114.822 1.35112 13.6665 -90.3123 -0.457813 2.57881 -0.465325 -12.1263 2.55584 -0.578464 -34.6819 2.59935 0.331756 -14.6693 2.59935 0.331754 103.606 0.533073 -76.5304 110.704 -33.1843 14.1567 -36.5415 41.3153 -135.332 8.94872 8.67056 79.4308 -81.4885 -4.77374 85.1546 86.0673 46.6987 -64.6179 -120.119 -0.842007 -111.175 13.7833 0.0178138 -3.60649 154.483 20.2025 10.0768 -98.7944 -22.9297 -5.19206 
